<svg width="192" height="52" viewBox="0 0 192 52" fill="none" xmlns="http://www.w3.org/2000/svg">
<path d="M176.507 51.8685C173.269 51.8685 170.031 51.8685 166.793 51.8685C165.704 51.8685 164.615 51.9671 163.556 51.9671C160.862 51.9671 158.139 51.8685 155.446 51.8685C151.996 51.8356 148.516 51.8685 145.067 51.8685C141.435 51.8685 137.774 51.8685 134.143 51.8685C132.842 51.8685 131.54 52 130.27 52C127.486 52 124.702 51.9014 121.948 51.9014C117.288 51.9014 112.628 51.9014 107.968 51.9014C101.522 51.9014 95.0468 51.9014 88.6014 51.8685C85.1215 51.8685 81.6416 51.8356 78.1617 51.8685C74.5608 51.9014 70.9901 51.8356 67.3891 51.8685C62.6686 51.9014 57.948 51.9014 53.2274 51.9014C49.5357 51.9014 45.844 51.9014 42.1522 51.9014C39.4288 51.9014 36.7054 51.8685 33.9518 51.8685C29.5641 51.8685 25.1764 51.9014 20.7887 51.9014C17.3995 51.9014 14.0104 51.9014 10.6515 51.8685C8.89645 51.8685 7.11111 51.9014 5.35603 51.8685C3.57069 51.8027 2.20898 50.9149 1.18014 49.3037C0.332861 47.9556 0 46.4759 0 44.8319C0.03026 41.9712 0 39.1105 0 36.2498C0 33.5207 0 30.7915 0 28.0624C0 20.8943 0 13.759 0 6.59088C0 4.38783 0.847281 2.61224 2.36028 1.23122C3.23783 0.442071 4.29693 0.0474953 5.44681 0.0474953C6.47565 0.0474953 7.53475 0.113258 8.56359 0.113258C11.6501 0.0803766 14.7669 0.0146139 17.8534 0.0146139C19.9414 0.0146139 22.0596 0.0803766 24.1778 0.0803766C26.0842 0.0803766 27.9905 0.0474953 29.8969 0.0146139C33.2861 0.0146139 36.6752 -0.0182674 40.0643 0.0146139C42.1522 0.0146139 44.2099 0.0803766 46.2979 0.0803766C48.2043 0.0803766 50.1106 0.0474953 52.017 0.0146139C55.4364 0.0146139 58.8255 -0.0182674 62.2449 0.0146139C64.1513 0.0146139 66.0577 0.0803766 67.9641 0.0803766C69.6284 0.0803766 71.2927 0.0146139 72.957 0.0146139C75.4383 0.0146139 77.8894 0.0803766 80.3707 0.0803766C81.6416 0.0803766 82.8823 0.0146139 84.1532 0.0146139C86.3924 0.0146139 88.6619 0.0803766 90.9012 0.0803766C92.3537 0.0803766 93.8061 0.0146139 95.2586 0.0146139C97.4979 0.0146139 99.7069 0.0803766 101.946 0.0803766C103.852 0.0803766 105.759 0.0474953 107.665 0.0146139C111.054 0.0146139 114.443 -0.0182674 117.833 0.0146139C119.921 0.0146139 121.978 0.0803766 124.066 0.0803766C125.973 0.0803766 127.879 0.0474953 129.785 0.0146139C133.235 0.0146139 136.654 -0.0182674 140.104 0.0146139C142.162 0.0146139 144.219 0.0803766 146.277 0.0803766C148.153 0.0803766 150.06 0.0474953 151.936 0.0146139C155.083 0.0146139 158.23 0.0146139 161.377 0.0146139C162.618 0.0146139 163.828 0.113258 165.069 0.0803766C167.852 0.0803766 170.636 0.0146139 173.42 0.0146139C175.266 0.0146139 177.082 0.0803766 178.928 0.0803766C181.197 0.0803766 183.467 0.0146139 185.736 0.0146139C186.765 0.0146139 187.824 0.0803766 188.762 0.672241C190.638 1.82309 191.576 3.66444 191.849 5.90037C192 7.18274 192 8.53088 192 9.84613C192 11.5888 191.909 13.2987 191.909 15.0414C191.879 17.5732 191.909 20.0722 191.909 22.6041C191.909 24.84 191.909 27.0759 191.909 29.279C191.909 32.4356 191.909 35.5922 191.909 38.7159C191.909 40.8532 191.909 42.9576 191.909 45.0949C191.909 46.9034 191.365 48.5146 190.336 49.8956C189.882 50.5203 189.125 50.9478 188.46 51.3752C187.794 51.8027 187.007 51.8685 186.22 51.8685C182.983 51.8685 179.745 51.9014 176.507 51.8685ZM95.9546 48.942C97.2255 48.942 98.4662 48.942 99.7371 48.942C107.817 48.942 115.896 48.942 123.975 48.942C130.875 48.942 137.774 48.9749 144.643 48.9749C148.637 48.9749 152.632 48.9749 156.626 48.9749C161.014 48.9749 165.371 48.942 169.759 48.942C175.236 48.942 180.743 48.942 186.22 48.942C187.34 48.942 188.096 48.383 188.641 47.3637C189.095 46.5417 189.216 45.6539 189.216 44.7332C189.216 35.3949 189.216 26.0566 189.216 16.7183C189.216 13.3316 189.246 9.94477 189.186 6.52512C189.156 4.32207 187.794 2.94105 185.797 2.90817C185.645 2.90817 185.494 2.90817 185.373 2.90817C172.21 2.90817 159.047 2.94105 145.884 2.94105C133.81 2.94105 121.736 2.94105 109.662 2.94105C102.4 2.94105 95.1376 2.94105 87.8752 2.94105C77.3144 2.94105 66.7839 2.94105 56.2232 2.94105C47.5385 2.94105 38.8539 2.94105 30.1693 2.94105C22.0293 2.94105 13.9196 2.94105 5.77967 2.94105C5.02317 2.94105 4.35745 3.17122 3.81277 3.76309C3.08652 4.55224 2.66288 5.5058 2.66288 6.65664C2.66288 8.72817 2.66288 10.7997 2.66288 12.9041C2.66288 22.3082 2.66288 31.7451 2.66288 41.1492C2.66288 42.5631 2.63262 43.977 2.66288 45.4237C2.7234 47.5939 4.08511 49.0078 6.02175 49.0078C11.7409 49.0078 17.4298 49.0407 23.1489 49.0407C27.7485 49.0407 32.348 49.0078 36.9475 49.0078C44.1797 49.0078 51.4118 49.0078 58.644 49.0078C61.3674 49.0078 64.0605 49.0407 66.7839 49.0407C71.5045 49.0407 76.2251 49.0078 80.9456 49.0078C85.9385 48.942 90.9314 48.942 95.9546 48.942Z" fill="#FE6A00"/>
<path d="M106.274 31.0698C104.939 31.0077 103.852 30.9456 102.734 30.8835C102.423 26.2561 102.113 21.7219 101.802 17.1876C101.74 17.1876 101.678 17.1876 101.616 17.1566C100.684 21.6908 99.8768 26.2871 98.9451 30.8835C97.4855 30.9456 96.088 30.9766 94.6904 31.0387C95.9016 24.6411 97.1439 18.1814 98.3861 11.6596C100.871 11.4112 103.355 11.5975 105.933 11.5664C106.212 15.0137 106.461 18.3678 106.709 21.7529C106.771 21.784 106.833 21.784 106.896 21.815C107.796 20.169 108.448 18.3988 109.225 16.6907C110.001 14.9826 110.684 13.2124 111.492 11.6286C114.039 11.6286 116.492 11.6286 119.07 11.6286C117.827 18.1504 116.616 24.5169 115.405 30.9145C113.635 30.9145 111.927 30.9145 110.094 30.9145C110.964 26.2871 111.834 21.7529 112.672 17.1876C112.61 17.1566 112.548 17.1566 112.455 17.1255C110.405 21.784 108.324 26.4424 106.274 31.0698Z" fill="#FE6A00"/>
<path d="M62.423 11.4424C63.4168 11.4424 64.3175 11.4424 65.2181 11.4424C67.4852 11.4424 69.7213 11.4424 71.9884 11.4424C73.3238 11.4424 74.6282 11.5666 75.8704 12.0635C77.5785 12.7467 78.4481 14.0511 78.4791 15.8524C78.5413 18.8027 77.268 21.0077 74.5661 22.3121C74.4418 22.3742 74.2866 22.4363 74.1623 22.4984C74.1313 22.4984 74.1313 22.5295 74.0381 22.6226C74.6282 25.3556 75.2182 28.1196 75.8704 31.0078C73.6344 31.0078 71.4915 31.0078 69.2865 31.0078C68.8206 28.5233 68.3548 26.101 67.889 23.6165C67.3299 23.6165 66.7709 23.6165 66.1187 23.6165C65.6529 26.0699 65.156 28.5233 64.6902 30.9457C63.3547 31.1321 59.4106 31.1321 58.6963 30.9147C59.9696 24.455 61.1808 17.9642 62.423 11.4424ZM66.9883 19.2996C68.2927 19.2996 69.4728 19.4239 70.6219 19.1443C71.5536 18.9269 72.1747 18.1816 72.2368 17.2499C72.2989 16.6288 71.8642 15.9145 71.3051 15.7903C70.125 15.5418 68.9138 15.635 67.6716 15.666C67.4231 16.9083 67.2057 18.0263 66.9883 19.2996Z" fill="white"/>
<path d="M43.4475 11.4112C44.7208 11.4112 45.932 11.4112 47.1432 11.4112C49.2239 11.4112 51.3047 11.3802 53.3855 11.4733C54.4103 11.5044 55.4662 11.6597 56.46 11.9081C58.5098 12.4671 59.9073 14.3926 59.4725 17.0324C59.0688 19.5169 57.7644 21.2561 55.4973 22.312C55.3731 22.3741 55.2799 22.4362 55.0625 22.5604C55.6526 25.3244 56.2427 28.1195 56.8638 30.9767C54.6588 30.9767 52.5159 30.9767 50.3109 30.9767C50.2177 30.573 50.1246 30.1382 50.0314 29.7344C49.7208 27.9953 49.4103 26.2561 49.0997 24.548C49.0376 24.2685 48.9444 23.989 48.8202 23.6474C48.2612 23.6474 47.7332 23.6474 47.1432 23.6474C46.6773 26.0698 46.1804 28.5232 45.7146 30.9767C43.727 30.9767 41.7704 30.9767 39.7207 30.9767C40.963 24.4238 42.2052 17.9641 43.4475 11.4112ZM48.696 15.6659C48.5407 16.3492 48.4165 16.9392 48.3233 17.4983C48.1991 18.0883 48.1059 18.6473 47.9817 19.3616C49.255 19.2995 50.4351 19.2374 51.5842 19.1132C51.9258 19.0821 52.2674 18.8337 52.547 18.6163C53.106 18.1815 53.3544 17.1566 53.137 16.5045C52.8886 15.8212 52.2674 15.6349 51.6463 15.6349C50.6836 15.6659 49.7208 15.6659 48.696 15.6659Z" fill="white"/>
<path d="M26.7395 11.4736C31.5842 11.4736 36.3048 11.4736 41.1496 11.4736C40.8701 12.9954 40.6216 14.455 40.3421 15.9457C37.4539 16.1631 34.5967 15.8836 31.6774 16.0389C31.4911 16.9085 31.3358 17.7781 31.1494 18.7719C33.4787 18.7719 35.7458 18.7719 38.1061 18.7719C37.8265 20.3247 37.547 21.7533 37.2675 23.2129C34.9073 23.2129 32.6401 23.2129 30.3109 23.2129C30.1246 24.2378 29.9382 25.2316 29.7209 26.3185C32.6401 26.3185 35.4352 26.3185 38.3235 26.3185C38.0439 27.9335 37.7644 29.4552 37.4849 31.0391C32.7023 31.0391 27.9196 31.0391 23.0127 31.0391C24.2549 24.4552 25.4972 17.9955 26.7395 11.4736Z" fill="white"/>
<path d="M77.7031 31.008C78.9454 24.3931 80.1876 17.9644 81.4299 11.4736C86.2436 11.4736 90.9642 11.4736 95.84 11.4736C95.5605 13.0264 95.281 14.4861 95.0015 16.0389C92.1132 16.0389 89.2871 16.0389 86.3989 16.0389C86.2126 16.9706 86.0573 17.8402 85.8399 18.8029C88.2002 18.8029 90.4362 18.8029 92.7965 18.8029C92.517 20.3247 92.2375 21.7533 91.958 23.2129C89.6287 23.2129 87.3306 23.2129 85.0014 23.2129C84.815 24.2378 84.6287 25.2316 84.4113 26.3185C87.2995 26.3185 90.1256 26.3185 93.0139 26.3185C92.7033 27.9335 92.4238 29.4242 92.1132 31.008C87.3616 31.008 82.579 31.008 77.7031 31.008Z" fill="white"/>
<path d="M150.313 17.3744C150.219 17.188 150.126 17.0949 150.095 17.0017C149.567 15.2936 147.021 15.0762 145.778 15.9147C145.002 16.4427 145.064 17.4986 145.903 17.8713C146.368 18.0887 146.896 18.1508 147.393 18.3061C148.76 18.6787 150.188 18.9582 151.524 19.4862C153.76 20.3868 154.474 22.1881 154.133 24.4241C153.636 27.6229 151.555 29.4553 148.667 30.4801C146.275 31.3186 143.822 31.4429 141.337 30.8217C139.008 30.2627 137.238 28.2751 137.021 25.8838C137.021 25.7596 137.021 25.6353 137.052 25.5422C137.486 25.2627 141.213 24.5484 142.455 24.5173C142.517 24.6726 142.549 24.8589 142.611 25.0453C142.921 25.9148 143.511 26.5049 144.412 26.5981C145.157 26.6913 145.965 26.6913 146.71 26.5981C147.269 26.536 147.797 26.3186 147.983 25.6353C148.17 24.921 148.045 24.4552 147.362 24.2067C146.617 23.9272 145.84 23.8341 145.064 23.5856C143.946 23.244 142.766 22.9645 141.71 22.4365C139.598 21.3806 139.039 19.7657 139.443 17.6228C140.095 14.0824 142.921 11.9395 146.244 11.4426C147.052 11.3184 147.859 11.132 148.667 11.1631C150.903 11.2873 152.983 11.8153 154.412 13.7097C154.847 14.2998 155.157 14.983 155.126 15.8837C153.542 16.4116 151.959 16.8775 150.313 17.3744Z" fill="#FE6A00"/>
<path d="M126.989 11.5664C129.039 11.5664 130.964 11.5664 133.014 11.5664C133.387 13.1503 133.387 14.7652 133.635 16.3491C133.884 17.9329 134.039 19.5479 134.225 21.1628C134.412 22.7777 134.629 24.3616 134.784 25.9765C134.971 27.5604 135.126 29.1753 135.312 30.9145C133.418 30.9145 131.585 30.9145 129.629 30.9145C129.225 29.7965 129.412 28.461 129.132 27.1877C128.946 27.1567 128.79 27.0946 128.604 27.0946C127.331 27.0946 126.057 27.0946 124.815 27.0946C124.194 27.0946 123.821 27.3741 123.542 27.9331C123.076 28.9269 122.548 29.9207 122.02 31.0076C120.529 31.0076 119.008 31.0076 117.424 31.0076C120.592 24.5169 123.79 18.0572 126.989 11.5664ZM128.884 22.933C128.915 21.0075 128.635 19.2063 128.48 17.3429C127.89 17.9951 125.871 22.374 125.871 22.933C126.803 22.933 127.766 22.933 128.884 22.933Z" fill="#FE6A00"/>
<path d="M15.1554 23.7098C14.6896 26.1943 14.2238 28.6167 13.789 31.008C11.8945 31.008 10.0001 31.008 7.98145 31.008C9.2237 24.4552 10.4659 17.9644 11.7082 11.4736C16.3356 11.4736 20.9009 11.4736 25.5904 11.4736C25.3109 13.0575 25.0314 14.5793 24.7518 16.1631C22.0499 16.1631 19.3791 16.1631 16.6462 16.1631C16.4288 17.219 16.2424 18.2128 16.025 19.2688C18.1369 19.2688 20.1245 19.2688 22.2363 19.2688C21.9568 20.7905 21.6773 22.2191 21.3978 23.7098C19.317 23.7098 17.2983 23.7098 15.1554 23.7098Z" fill="white"/>
<path d="M83.0848 43.7099C82.7122 41.1322 82.3395 38.5856 81.9668 36.0079C81.532 38.6167 81.0972 41.1633 80.6624 43.741C79.7618 43.741 78.8922 43.741 77.8984 43.741C78.5196 40.2627 79.1096 36.8154 79.7308 33.3682C81.3457 33.3682 82.8985 33.3682 84.5755 33.3682C84.824 35.0452 85.0724 36.7222 85.3209 38.5856C86.2215 36.7533 87.06 35.0452 87.8986 33.3682C89.5135 33.3682 91.0974 33.3682 92.7744 33.3682C92.1533 36.8465 91.5321 40.2627 90.911 43.7099C89.8241 43.7099 88.7371 43.7099 87.5259 43.7099C87.9607 41.3496 88.3644 39.0204 88.7681 36.6912C88.7371 36.6912 88.7371 36.6601 88.706 36.6601C87.557 39.0204 86.3768 41.3496 85.2277 43.741C84.5445 43.7099 83.8302 43.7099 83.0848 43.7099Z" fill="white"/>
<path d="M106.44 43.772C105.322 43.772 104.235 43.772 103.023 43.772C103.645 40.2626 104.235 36.8153 104.856 33.337C106.502 33.337 108.024 33.306 109.545 33.337C110.291 33.337 111.036 33.3992 111.75 33.5234C112.465 33.6476 113.086 34.0203 113.583 34.5793C114.421 35.542 114.576 37.9023 112.961 38.834C112.589 39.0514 112.216 39.2377 111.812 39.4862C112.216 40.8837 112.651 42.2813 113.086 43.772C111.874 43.772 110.756 43.772 109.576 43.772C109.204 42.4986 108.862 41.2253 108.489 39.8899C108.055 39.8899 107.651 39.8899 107.154 39.8899C106.937 41.1322 106.688 42.4055 106.44 43.772ZM107.558 37.6228C108.427 37.5607 109.142 37.5607 109.856 37.4675C110.446 37.3744 110.788 36.9085 110.756 36.4427C110.725 35.9768 110.415 35.6663 109.794 35.6042C109.204 35.542 108.614 35.6042 107.961 35.6042C107.806 36.2253 107.713 36.8464 107.558 37.6228Z" fill="white"/>
<path d="M71.2526 43.9891C70.0103 44.0513 68.7681 43.6165 67.6811 42.7469C66.8426 42.0637 66.3457 41.2251 66.1904 40.1692C65.5382 35.9145 68.8612 32.5294 73.116 33.0573C76.0663 33.43 77.7434 35.6971 77.3707 38.6785C77.0291 41.5046 74.6998 44.0823 71.2526 43.9891ZM69.7929 39.6413C69.9172 40.3866 69.8861 41.1009 70.6936 41.4425C71.4389 41.7531 72.3706 41.4736 72.7743 40.7593C73.4265 39.5481 73.706 38.1816 73.6439 36.8151C73.5818 35.8834 72.7743 35.3555 71.8427 35.5729C71.2215 35.7282 70.7867 36.1319 70.5693 36.722C70.2588 37.6847 70.0414 38.6475 69.7929 39.6413Z" fill="white"/>
<path d="M164.342 35.5805C163.379 35.8911 162.509 36.1706 161.64 36.419C160.894 35.4252 160.211 35.1768 159.342 35.4252C158.938 35.5494 158.658 35.7668 158.658 36.2016C158.658 36.6054 158.938 36.7917 159.311 36.8849C160.056 37.0712 160.801 37.2575 161.547 37.4439C164.124 38.1271 164.124 40.2389 163.224 41.8849C162.478 43.2203 161.205 43.9036 159.745 44.2141C158.441 44.4937 157.137 44.5247 155.894 43.9657C154.745 43.4377 154.093 42.5371 154 41.1396C154.994 40.9532 155.957 40.798 156.888 40.6116C157.665 41.8539 158.472 42.1955 159.652 41.7607C160.025 41.6365 160.367 41.4501 160.367 40.9843C160.367 40.5495 160.025 40.3942 159.683 40.3011C159.124 40.1458 158.565 40.0215 158.037 39.8663C157.634 39.742 157.23 39.6489 156.857 39.4625C156.453 39.2762 156.081 38.9967 155.739 38.7793C154.528 36.3258 156.453 33.8724 158.472 33.3134C159.621 32.9718 160.801 32.8786 161.981 33.1892C163.193 33.4997 163.907 34.2451 164.342 35.5805Z" fill="white"/>
<path d="M101.656 43.7408C98.737 43.7408 95.8798 43.7408 92.8984 43.7408C93.5196 40.2625 94.1407 36.8152 94.7618 33.3369C97.619 33.3369 100.414 33.3369 103.302 33.3369C103.147 34.1133 103.023 34.8276 102.868 35.604C101.19 35.604 99.5445 35.604 97.8674 35.604C97.7743 36.132 97.6811 36.6289 97.5879 37.1879C99.0165 37.1879 100.352 37.1879 101.843 37.1879C101.687 37.9954 101.563 38.7097 101.408 39.4861C99.9793 39.4861 98.6128 39.4861 97.1531 39.4861C97.06 40.0761 96.9668 40.6041 96.8736 41.2563C98.6128 41.2563 100.29 41.2563 102.091 41.2563C101.936 42.1569 101.781 42.9333 101.656 43.7408Z" fill="white"/>
<path d="M125.757 37.1572C124.545 37.2193 123.459 37.2814 122.34 37.3746C122.309 37.0951 122.278 36.8777 122.216 36.6603C122.123 36.1324 121.906 35.6976 121.378 35.5423C120.819 35.356 120.291 35.4802 119.856 35.8839C119.701 36.0392 119.545 36.2255 119.452 36.4119C118.955 37.5299 118.707 38.7411 118.738 39.9523C118.769 41.0082 119.39 41.5362 120.353 41.4119C120.974 41.3188 121.378 40.9461 121.595 40.3871C121.688 40.2007 121.75 39.9833 121.844 39.7038C122.931 39.8281 123.955 39.9523 125.105 40.0765C124.639 41.5051 123.893 42.5921 122.651 43.3064C121.129 44.1759 119.452 44.2691 117.837 43.679C116.005 43.0269 115.104 41.5672 114.949 39.7038C114.67 36.2876 117.03 32.9957 121.036 33.0888C122.9 33.151 124.421 33.7721 125.291 35.5423C125.508 35.9771 125.57 36.5361 125.757 37.1572Z" fill="white"/>
<path d="M65.6624 37.157C64.5133 37.2191 63.4574 37.3123 62.4015 37.3744C62.3083 37.0017 62.2462 36.6601 62.1531 36.3806C61.8114 35.3868 60.5692 35.1694 59.8859 35.9458C59.7307 36.1011 59.6064 36.2874 59.5133 36.5048C58.9543 37.747 58.6437 39.0514 58.83 40.4179C58.8921 40.9458 59.2648 41.3185 59.7928 41.4117C60.4139 41.5359 61.1593 41.2564 61.5009 40.7285C61.6872 40.4489 61.8114 40.1073 62.0288 39.7036C63.0537 39.7968 64.0785 39.8899 65.1345 39.9831C64.886 41.6601 63.1469 43.7409 60.6313 43.9583C58.9853 44.0825 57.4636 43.8341 56.2834 42.5608C55.6623 41.8775 55.2586 41.1011 55.1033 40.2005C54.6995 37.716 55.476 35.6352 57.4946 34.1756C59.3891 32.8091 61.5319 32.6849 63.6127 33.7097C64.9171 34.3619 65.6314 35.511 65.6624 37.157Z" fill="white"/>
<path d="M135.57 33.3369C136.843 33.3369 138.055 33.3369 139.359 33.3369C140.011 36.7842 140.632 40.2314 141.284 43.7408C140.042 43.7408 138.924 43.7408 137.713 43.7408C137.589 43.0575 137.496 42.3432 137.371 41.6289C136.315 41.6289 135.322 41.6289 134.266 41.6289C133.924 42.2811 133.551 42.9954 133.179 43.7097C132.216 43.7097 131.284 43.7097 130.197 43.7097C132.03 40.2004 133.8 36.7842 135.57 33.3369ZM136.657 36.6289C136.16 37.6227 135.756 38.4612 135.291 39.3618C135.943 39.3618 136.502 39.3618 137.123 39.3618C136.968 38.4923 136.812 37.6537 136.657 36.6289Z" fill="white"/>
<path d="M168.659 44.2142C169.093 43.3136 169.497 42.5683 169.87 41.8229C171.205 39.121 172.541 36.3881 173.876 33.6862C174.062 33.3445 174.311 33.1582 174.684 33.1582C175.615 33.1582 176.547 33.1582 177.572 33.1582C178.007 36.885 178.441 40.4875 178.845 44.059C178.255 44.3074 176.889 44.3385 175.677 44.1832C175.584 43.531 175.46 42.8478 175.367 42.1335C174.373 41.9161 173.41 42.0714 172.385 42.0714C172.013 42.7857 171.64 43.4999 171.267 44.2142C170.367 44.2142 169.59 44.2142 168.659 44.2142ZM173.317 39.649C174 39.649 174.559 39.649 175.243 39.649C175.149 38.562 175.025 37.5682 174.932 36.5744C174.87 36.5744 174.808 36.5433 174.715 36.5433C174.28 37.5682 173.814 38.562 173.317 39.649Z" fill="white"/>
<path d="M142.247 43.772C142.899 40.2316 143.489 36.7844 144.11 33.3682C145.353 33.3682 146.502 33.3682 147.744 33.3682C147.278 35.9769 146.843 38.5235 146.378 41.1944C147.868 41.1944 149.266 41.1944 150.819 41.1944C150.663 42.126 150.539 42.9335 150.384 43.772C147.682 43.772 145.042 43.772 142.247 43.772Z" fill="white"/>
<path d="M129.141 43.772C127.961 43.772 126.905 43.772 125.756 43.772C126.377 40.2627 126.968 36.8154 127.589 33.3682C128.738 33.3682 129.825 33.3682 131.036 33.3682C130.384 36.8465 129.763 40.2627 129.141 43.772Z" fill="white"/>
<path d="M133.884 5.16895C134.008 6.10063 134.132 6.9081 134.256 7.71556C133.418 8.15035 127.952 9.61 127.362 9.54788C127.269 9.05098 127.206 8.52303 127.113 7.9019C129.349 7.00127 131.554 6.10063 133.884 5.16895Z" fill="#FE6A00"/>
<path d="M165.149 41.4189C166.081 41.4189 166.981 41.4189 167.944 41.4189C167.944 42.3506 167.634 43.1892 167.478 44.1208C166.547 44.3382 165.646 44.2451 164.683 44.214C164.652 43.2202 164.963 42.3506 165.149 41.4189Z" fill="white"/>
<path d="M179.932 44.2142C180.118 43.2204 180.305 42.3197 180.491 41.388C181.485 41.388 182.386 41.2949 183.41 41.4191C183.193 42.4129 182.976 43.2825 182.758 44.2142C181.827 44.2142 180.926 44.2142 179.932 44.2142Z" fill="white"/>
</svg>
